<svg width="100" height="32" viewBox="0 0 100 32" fill="none" xmlns="http://www.w3.org/2000/svg">
<g id="Logotype">
<g id="Group 13304">
<g id="Group 13253">
<path id="." d="M39.3191 12.1556C39.3191 11.7277 39.465 11.3678 39.7568 11.076C40.0486 10.7842 40.4085 10.6383 40.8364 10.6383C41.2644 10.6383 41.6243 10.7842 41.9161 11.076C42.2273 11.3678 42.3829 11.7277 42.3829 12.1556C42.3829 12.5836 42.2273 12.9532 41.9161 13.2644C41.6243 13.5562 41.2644 13.7021 40.8364 13.7021C40.389 13.7021 40.0388 13.5465 39.786 13.2353C39.4747 12.9435 39.3191 12.5836 39.3191 12.1556Z" fill="white"/>
<path id="Union" fill-rule="evenodd" clip-rule="evenodd" d="M23.2699 22.64L23.2725 22.6426L23.2752 22.6452C24.1528 23.4909 25.2412 23.9149 26.506 23.9149H28.5267C29.1289 23.9149 29.6171 23.4267 29.6171 22.8245V21.7991C29.6171 21.1969 29.1289 20.7087 28.5267 20.7087H26.8707C26.4416 20.7087 26.1484 20.591 25.9362 20.3928C25.74 20.1698 25.6162 19.8475 25.6162 19.3719V13.849H28.5183C29.1205 13.849 29.6087 13.3608 29.6087 12.7586V11.7057C29.6087 11.1035 29.1205 10.6153 28.5183 10.6153H25.6162V8.15428C25.6162 7.55206 25.128 7.06386 24.5258 7.06386L23.0479 7.06384C22.4457 7.06384 21.9575 7.55204 21.9575 8.15427L21.9575 19.308C21.9575 20.6371 22.3854 21.7634 23.2699 22.64Z" fill="white"/>
<path id="Union_2" d="M16.8458 6.58407C16.5088 6.92105 16.3403 7.33025 16.3403 7.81166C16.3403 8.31714 16.5209 8.73838 16.8819 9.07536C17.2189 9.43642 17.6401 9.61695 18.1456 9.61695C18.627 9.61695 19.0362 9.44846 19.3732 9.11147C19.7343 8.75041 19.9148 8.31714 19.9148 7.81166C19.9148 7.33025 19.7343 6.92105 19.3732 6.58407C19.0362 6.22301 18.627 6.04248 18.1456 6.04248C17.6401 6.04248 17.2069 6.22301 16.8458 6.58407Z" fill="white"/>
<path id="Union_3" d="M16.3403 22.8245C16.3403 23.4267 16.8285 23.9149 17.4308 23.9149H18.8244C19.4266 23.9149 19.9148 23.4267 19.9148 22.8245L19.9148 11.7287C19.9148 11.1265 19.4266 10.6383 18.8244 10.6383L17.4309 10.6383C16.8287 10.6383 16.3405 11.1265 16.3405 11.7287L16.3403 22.8245Z" fill="white"/>
<path id="Union_4" fill-rule="evenodd" clip-rule="evenodd" d="M47.4247 12.6874L47.4264 12.6892L47.4281 12.691C48.0787 13.3614 48.8707 13.7021 49.7902 13.7021C50.5634 13.7021 51.2169 13.4906 51.7277 13.0493V13.1472C51.7277 13.4407 51.9675 13.6788 52.2635 13.6788H53.0811C53.3771 13.6788 53.617 13.4407 53.617 13.1472V12.8258V4.5316C53.617 4.23801 53.3771 4 53.0811 4L52.2589 4C51.9629 4 51.723 4.23801 51.723 4.5316V7.09809L51.7225 7.21918C51.7225 7.21918 51.6587 7.16926 51.5912 7.11632C51.1137 6.74233 50.5499 6.55766 49.912 6.55766C48.952 6.55766 48.1313 6.88834 47.4663 7.54809C46.7967 8.2124 46.468 9.06929 46.468 10.0954C46.468 11.1293 46.7826 12.0004 47.4247 12.6874ZM51.2492 8.79907L51.2505 8.80054L51.2519 8.802C51.5878 9.16556 51.7578 9.60856 51.7578 10.1472C51.7578 10.7011 51.5913 11.1356 51.2716 11.4726C50.9498 11.8118 50.5602 11.9785 50.086 11.9785C49.6114 11.9785 49.2071 11.8112 48.8601 11.467C48.5196 11.1291 48.3445 10.6965 48.3445 10.1472C48.3445 9.59567 48.5154 9.15476 48.8479 8.8048C49.1962 8.4389 49.599 8.26403 50.0686 8.26403C50.5376 8.26403 50.9259 8.43817 51.2492 8.79907Z" fill="white"/>
<path id="Union_5" d="M43.9876 13.7022H44.8636C45.1857 13.7022 45.4468 13.4641 45.4468 13.1705L45.4469 7.08491C45.4469 6.79128 45.1857 6.55324 44.8636 6.55323L43.9875 6.55322C43.6654 6.55322 43.4043 6.79126 43.4043 7.08491L43.4044 13.1705C43.4044 13.4641 43.6655 13.7022 43.9876 13.7022Z" fill="white"/>
<path id="Ellipse 6733" d="M45.4469 5.02128C45.4469 5.58531 44.9896 6.04255 44.4256 6.04255C43.8615 6.04255 43.4043 5.58531 43.4043 5.02128C43.4043 4.45724 43.8615 4 44.4256 4C44.9896 4 45.4469 4.45724 45.4469 5.02128Z" fill="white"/>
<path id="Union_6" d="M32.1423 11.6673L32.1397 11.6692L32.1371 11.6712C31.1385 12.4371 30.6382 13.4769 30.6382 14.7385C30.6382 15.6765 31.0238 16.4837 31.7594 17.1342C32.4783 17.77 33.8921 18.3309 35.2292 18.7237C35.9983 18.9496 36.6014 19.2021 36.8871 19.451C37.1607 19.6895 37.1812 20.2008 36.8859 20.4276C36.6777 20.5877 36.3564 20.6949 35.8608 20.6949H32.1948C31.5926 20.6949 31.1044 21.1831 31.1044 21.7853V22.8245C31.1044 23.4267 31.5926 23.9149 32.1948 23.9149H35.7943C37.2227 23.9149 38.4061 23.663 39.3638 22.8847L39.3648 22.8839C40.3519 22.0779 40.851 21.0235 40.851 19.7625C40.851 18.4883 40.3664 17.4696 39.3544 16.8014C38.9539 16.5369 38.5656 16.3555 38.0752 16.1365C37.3638 15.8187 36.5752 15.4885 35.5881 15.2287C34.9745 15.0672 34.5383 14.9313 34.344 14.7672C34.1038 14.5643 34.1482 14.1779 34.4307 14.0048C34.6528 13.8688 35.1028 13.8508 35.7611 13.8508H37.5675C38.1697 13.8508 38.6579 13.3626 38.6579 12.7603V11.7287C38.6579 11.1265 38.1697 10.6383 37.5675 10.6383L35.9605 10.6383C34.4356 10.6383 33.1465 10.9163 32.1423 11.6673Z" fill="white"/>
<path id="Union_7" fill-rule="evenodd" clip-rule="evenodd" d="M5.16945 10.1277C3.68565 10.1277 2.51612 10.5295 1.47689 11.5392C0.42625 12.56 3.29483e-05 14.0815 7.62566e-06 15.5466L4.14255e-10 16.1188C-4.25771e-05 20.2294 3.28203 23.5639 7.33064 23.5639H8.35731C8.87819 23.5639 9.28299 23.1104 9.22404 22.5929L9.0672 21.2158C9.0096 20.71 8.57327 20.3379 8.06452 20.3207C-nan -nan -nan -nan -nan -nanC-nan -nan -nan -nan 8.06452 20.3207C-nan -nan -nan -nan 8.06452 20.3207C-nan -nan -nan -nan -nan -nanC-nan -nan -nan -nan 8.06452 20.3207Lnan nanL8.06452 20.3207C5.84064 20.2458 3.85867 19.5364 3.85874 15.5467C3.85876 14.4817 4.24074 13.4244 5.40989 13.4244H8.90629C9.96343 13.4244 10.8207 14.3327 10.8207 15.4152V21.7438V22.2971C10.8207 23.657 9.73494 24.7594 8.39554 24.7594H6.34919C5.91419 24.7594 5.56155 25.1174 5.56155 25.5591V27.2003C5.56155 27.642 5.91419 28 6.34919 28H9.4475C12.1263 28 14.2979 25.7952 14.2979 23.0754V14.5407C14.2979 12.1034 12.3519 10.1277 9.95144 10.1277H5.16945Z" fill="white"/>
<path id="Rectangle 2510" d="M8.17017 18.0426C8.17017 17.6195 8.5131 17.2766 8.93612 17.2766C9.35915 17.2766 9.70208 17.6195 9.70208 18.0426C9.70208 18.4656 9.35915 18.8085 8.93612 18.8085C8.5131 18.8085 8.17017 18.4656 8.17017 18.0426Z" fill="white"/>
</g>
</g>
</g>
</svg>
